<svg width="33" height="33" viewBox="0 0 33 33" fill="none" xmlns="http://www.w3.org/2000/svg">
<g clip-path="url(#clip0)">
<path d="M32.4691 9.90809C32.3941 8.2078 32.1191 7.03888 31.7253 6.02598C31.3189 4.95082 30.6938 3.98823 29.8748 3.18802C29.0746 2.37537 28.1057 1.7439 27.043 1.34391C26.0242 0.950039 24.8614 0.675083 23.1611 0.600117C21.4481 0.518802 20.9043 0.5 16.5597 0.5C12.2151 0.5 11.6713 0.518802 9.96471 0.593768C8.26443 0.668734 7.0955 0.943934 6.08286 1.33757C5.00745 1.7439 4.04486 2.36902 3.24466 3.18802C2.432 3.98823 1.80078 4.95717 1.40055 6.01988C1.00668 7.03888 0.731723 8.20146 0.656758 9.90174C0.575443 11.6147 0.556641 12.1585 0.556641 16.5031C0.556641 20.8477 0.575443 21.3915 0.650409 23.0982C0.725374 24.7984 1.00057 25.9674 1.39445 26.9803C1.80078 28.0554 2.432 29.018 3.24466 29.8182C4.04486 30.6309 5.0138 31.2624 6.07651 31.6623C7.0955 32.0562 8.25808 32.3312 9.95861 32.4061C11.665 32.4813 12.209 32.4999 16.5536 32.4999C20.8982 32.4999 21.442 32.4813 23.1487 32.4061C24.8489 32.3312 26.0179 32.0562 27.0305 31.6623C29.1811 30.8309 30.8814 29.1306 31.7128 26.9803C32.1064 25.9613 32.3816 24.7984 32.4566 23.0982C32.5316 21.3915 32.5504 20.8477 32.5504 16.5031C32.5504 12.1585 32.544 11.6147 32.4691 9.90809ZM29.5874 22.9731C29.5185 24.5359 29.256 25.3799 29.0372 25.9425C28.4995 27.3365 27.3931 28.443 25.9991 28.9807C25.4365 29.1995 24.5864 29.462 23.0297 29.5306C21.3419 29.6058 20.8357 29.6243 16.5661 29.6243C12.2965 29.6243 11.7839 29.6058 10.1022 29.5306C8.53939 29.462 7.69547 29.1995 7.13286 28.9807C6.43913 28.7243 5.80766 28.3179 5.29511 27.7866C4.76375 27.2677 4.35742 26.6426 4.10103 25.9488C3.88224 25.3862 3.61973 24.5359 3.55112 22.9795C3.47591 21.2917 3.45735 20.7852 3.45735 16.5156C3.45735 12.2459 3.47591 11.7334 3.55112 10.0519C3.61973 8.48911 3.88224 7.64519 4.10103 7.08258C4.35742 6.3886 4.76375 5.75737 5.30146 5.24458C5.82011 4.71323 6.44523 4.3069 7.13921 4.05074C7.70182 3.83195 8.55208 3.56945 10.1085 3.50059C11.7964 3.42562 12.3028 3.40682 16.5722 3.40682C20.8482 3.40682 21.3544 3.42562 23.0361 3.50059C24.5989 3.56945 25.4428 3.83195 26.0054 4.05074C26.6991 4.3069 27.3306 4.71323 27.8432 5.24458C28.3745 5.76348 28.7808 6.3886 29.0372 7.08258C29.256 7.64519 29.5185 8.49521 29.5874 10.0519C29.6624 11.7397 29.6812 12.2459 29.6812 16.5156C29.6812 20.7852 29.6624 21.2853 29.5874 22.9731Z" fill="white"/>
<path d="M16.5592 8.28271C12.021 8.28271 8.33887 11.9646 8.33887 16.5031C8.33887 21.0416 12.021 24.7234 16.5592 24.7234C21.0977 24.7234 24.7796 21.0416 24.7796 16.5031C24.7796 11.9646 21.0977 8.28271 16.5592 8.28271ZM16.5592 21.8354C13.615 21.8354 11.2269 19.4475 11.2269 16.5031C11.2269 13.5586 13.615 11.1707 16.5592 11.1707C19.5036 11.1707 21.8916 13.5586 21.8916 16.5031C21.8916 19.4475 19.5036 21.8354 16.5592 21.8354Z" fill="white"/>
<path d="M27.024 7.95778C27.024 9.01756 26.1647 9.87686 25.1046 9.87686C24.0449 9.87686 23.1855 9.01756 23.1855 7.95778C23.1855 6.89775 24.0449 6.0387 25.1046 6.0387C26.1647 6.0387 27.024 6.89775 27.024 7.95778Z" fill="white"/>
</g>
<defs>
<clipPath id="clip0">
<rect width="32" height="32" fill="white" transform="translate(0.5 0.5)"/>
</clipPath>
</defs>
</svg>
